<?xml version="1.0" encoding="iso-8859-1"?>
<!-- Generator: Adobe Illustrator 19.0.0, SVG Export Plug-In . SVG Version: 6.00 Build 0)  -->
<svg version="1.1" id="Capa_1" xmlns="http://www.w3.org/2000/svg" xmlns:xlink="http://www.w3.org/1999/xlink" x="0px" y="0px"
	 viewBox="0 0 480 480" style="enable-background:new 0 0 480 480;" xml:space="preserve">
<g>
	<g>
		<g>
			<path d="M474.76,327.596c-8.92-15.201-28.396-20.418-43.72-11.712l-84.032,48.512c-1.634-13.261-11.225-24.166-24.168-27.48
				l-75.296-13.32c-10.77-2.458-21.147-6.399-30.832-11.712c-19.974-10.391-42.198-15.71-64.712-15.488
				c-22.127-0.314-43.993,4.815-63.672,14.936c-2.878,1.418-5.873,2.585-8.952,3.488c-12.639,3.818-25.782,5.706-38.984,5.6H8
				c-4.418,0-8,3.582-8,8v111.976c0,4.418,3.582,8,8,8h48.696c4.457,0,8.907,0.34,13.312,1.016l194.856,29.824
				c5.584,0.984,11.336-0.021,16.256-2.84l181.912-105.04c9.958-5.666,16.078-16.271,16-27.728
				C479.036,338.002,477.562,332.474,474.76,327.596L474.76,327.596z M455.04,357.468L455.04,357.468L273.08,462.532
				c-1.701,0.953-3.683,1.279-5.6,0.92L72.44,433.596c-5.21-0.797-10.473-1.199-15.744-1.2H16v-96h24.392
				c14.815,0.111,29.562-2.012,43.744-6.296c4.041-1.189,7.965-2.747,11.72-4.656c17.388-8.816,36.651-13.293,56.144-13.048
				c19.826-0.243,39.408,4.389,57.024,13.488c11.096,6.08,22.991,10.572,35.336,13.344l75,13.296
				c8.539,2.31,13.599,11.095,11.312,19.64c-0.356,1.321-0.895,2.587-1.6,3.76v0.072h-0.04c-3.733,6.097-10.967,9.097-17.92,7.432
				c-0.304-0.08-101.968-14.984-101.968-14.984c-4.351-0.768-8.501,2.136-9.269,6.487c-0.768,4.351,2.136,8.501,6.487,9.269
				c0.153,0.027,0.308,0.05,0.462,0.068c0,0,105.672,15.672,108.328,15.68h0.112c10.546-0.007,20.406-5.231,26.336-13.952
				l97.408-56.264c7.642-4.436,17.434-1.837,21.87,5.806c1.421,2.448,2.167,5.228,2.162,8.058
				C463.077,349.326,460.018,354.631,455.04,357.468z"/>
			<path d="M472,0.396H120c-4.418,0-8,3.582-8,8v48c0,4.418,3.582,8,8,8h8v200c0,4.418,3.582,8,8,8h320c4.418,0,8-3.582,8-8v-200h8
				c4.418,0,8-3.582,8-8v-48C480,3.978,476.418,0.396,472,0.396z M448,256.396H144v-192h304V256.396z M464,48.396H128v-32h336
				V48.396z"/>
			<rect x="160" y="232.396" width="16" height="16"/>
			<rect x="192" y="232.396" width="16" height="16"/>
			<rect x="224" y="232.396" width="16" height="16"/>
			<rect x="256" y="232.396" width="16" height="16"/>
			<rect x="288" y="232.396" width="16" height="16"/>
			<rect x="320" y="232.396" width="16" height="16"/>
			<rect x="352" y="232.396" width="16" height="16"/>
			<rect x="384" y="232.396" width="16" height="16"/>
			<rect x="416" y="232.396" width="16" height="16"/>
			<path d="M264,128.396h64c13.255,0,24-10.745,24-24s-10.745-24-24-24h-64c-13.255,0-24,10.745-24,24S250.745,128.396,264,128.396z
				 M264,96.396h64c4.418,0,8,3.582,8,8s-3.582,8-8,8h-64c-4.418,0-8-3.582-8-8S259.582,96.396,264,96.396z"/>
		</g>
	</g>
</g>
<g>
</g>
<g>
</g>
<g>
</g>
<g>
</g>
<g>
</g>
<g>
</g>
<g>
</g>
<g>
</g>
<g>
</g>
<g>
</g>
<g>
</g>
<g>
</g>
<g>
</g>
<g>
</g>
<g>
</g>
</svg>
